<svg width="459" height="253" viewBox="0 0 459 253" fill="none" xmlns="http://www.w3.org/2000/svg">
<path fill-rule="evenodd" clip-rule="evenodd" d="M115.499 21.9826C117.932 19.5488 117.796 15.5396 115.003 13.5292C103.171 5.01489 88.6532 0 72.9638 0C33.1724 0 0.915039 32.2573 0.915039 72.0488C0.915039 87.7382 5.92993 102.256 14.4442 114.088C16.4547 116.881 20.4638 117.017 22.8976 114.584L115.499 21.9826ZM28.2058 120.442C25.835 122.812 25.8906 126.698 28.5285 128.767C40.77 138.371 56.1981 144.098 72.9638 144.098C112.755 144.098 145.013 111.84 145.013 72.0488C145.013 55.2831 139.286 39.8549 129.682 27.6135C127.613 24.9756 123.727 24.92 121.357 27.2908L28.2058 120.442Z" fill="white"/>
<path fill-rule="evenodd" clip-rule="evenodd" d="M162.539 99.4054C161.429 100.516 160.805 102.022 160.805 103.593V138.176C160.805 141.446 163.456 144.098 166.726 144.098H197.079C198.649 144.098 200.156 143.474 201.266 142.363L228.901 114.729C231.213 112.416 234.963 112.416 237.275 114.729L264.91 142.363C266.02 143.474 267.527 144.098 269.097 144.098H298.98C302.251 144.098 304.902 141.446 304.902 138.176V103.124C304.902 101.553 304.278 100.047 303.168 98.9365L281.454 77.2231C279.142 74.9105 279.142 71.161 281.454 68.8484L303.168 47.1351C304.278 46.0245 304.902 44.5183 304.902 42.9477V5.92182C304.902 2.65129 302.251 0 298.98 0H269.568C267.997 0 266.491 0.623902 265.38 1.73446L237.275 29.8393C234.963 32.1519 231.213 32.1519 228.901 29.8393L200.796 1.73446C199.685 0.623904 198.179 0 196.608 0H166.727C163.456 0 160.805 2.65129 160.805 5.92182V42.4787C160.805 44.0493 161.429 45.5555 162.539 46.6661L184.721 68.8484C187.034 71.161 187.034 74.9105 184.721 77.2231L162.539 99.4054Z" fill="white"/>
<path fill-rule="evenodd" clip-rule="evenodd" d="M403.599 51.3224C403.599 49.1421 401.832 47.3745 399.651 47.3745H335.69C330.239 47.3745 325.82 42.9557 325.82 37.5048V9.8697C325.82 4.41881 330.239 0 335.69 0H418.635C440.439 0 458.114 17.6753 458.114 39.4788V104.619C458.114 126.422 440.439 144.098 418.635 144.098H334.511C329.06 144.098 324.642 139.679 324.642 134.228V112.515C324.642 107.064 329.06 102.645 334.511 102.645H401.625C403.806 102.645 405.573 100.877 405.573 98.697V98.697C405.573 96.5166 403.806 94.7491 401.625 94.7491H356.225C350.774 94.7491 346.355 90.3303 346.355 84.8794V65.14C346.355 59.6891 350.774 55.2703 356.225 55.2703H399.651C401.832 55.2703 403.599 53.5028 403.599 51.3224V51.3224Z" fill="white"/>
<path d="M21.18 252.041H12.8648L28.0043 209.037H37.6213L52.7817 252.041H44.4666L32.9808 217.857H32.6448L21.18 252.041ZM21.4529 235.18H44.1306V241.437H21.4529V235.18ZM116.886 223.547H109.033C108.809 222.259 108.396 221.118 107.794 220.124C107.192 219.116 106.443 218.262 105.547 217.563C104.651 216.863 103.629 216.338 102.482 215.988C101.348 215.624 100.123 215.442 98.8069 215.442C96.4692 215.442 94.3974 216.03 92.5916 217.206C90.7858 218.367 89.3719 220.075 88.35 222.329C87.3281 224.569 86.8172 227.306 86.8172 230.539C86.8172 233.829 87.3281 236.601 88.35 238.854C89.3859 241.094 90.7998 242.788 92.5916 243.936C94.3974 245.07 96.4622 245.637 98.7859 245.637C100.074 245.637 101.278 245.469 102.398 245.133C103.531 244.783 104.546 244.272 105.442 243.6C106.352 242.928 107.115 242.102 107.731 241.122C108.361 240.142 108.795 239.022 109.033 237.762L116.886 237.804C116.592 239.848 115.955 241.766 114.975 243.558C114.009 245.35 112.743 246.932 111.175 248.303C109.607 249.661 107.773 250.725 105.673 251.495C103.573 252.251 101.243 252.629 98.6809 252.629C94.9013 252.629 91.5277 251.754 88.56 250.004C85.5923 248.254 83.2545 245.728 81.5467 242.424C79.8389 239.12 78.985 235.159 78.985 230.539C78.985 225.906 79.8459 221.944 81.5677 218.654C83.2895 215.351 85.6343 212.824 88.602 211.074C91.5697 209.324 94.9293 208.449 98.6809 208.449C101.075 208.449 103.3 208.785 105.358 209.457C107.416 210.129 109.25 211.116 110.86 212.418C112.47 213.706 113.792 215.288 114.828 217.164C115.878 219.025 116.564 221.153 116.886 223.547ZM152.675 252.041H144.36L159.499 209.037H169.116L184.277 252.041H175.961L164.476 217.857H164.14L152.675 252.041ZM152.948 235.18H175.625V241.437H152.948V235.18ZM228.165 252.041H213.593V209.037H228.459C232.729 209.037 236.396 209.898 239.462 211.62C242.542 213.328 244.908 215.785 246.559 218.99C248.211 222.196 249.037 226.032 249.037 230.497C249.037 234.977 248.204 238.826 246.538 242.046C244.887 245.266 242.5 247.736 239.378 249.458C236.27 251.18 232.533 252.041 228.165 252.041ZM221.383 245.301H227.787C230.783 245.301 233.282 244.755 235.284 243.663C237.285 242.557 238.79 240.912 239.798 238.728C240.806 236.531 241.31 233.787 241.31 230.497C241.31 227.208 240.806 224.478 239.798 222.308C238.79 220.124 237.299 218.493 235.326 217.416C233.366 216.324 230.93 215.778 228.018 215.778H221.383V245.301ZM280.091 252.041V209.037H308.06V215.568H287.881V227.243H306.611V233.773H287.881V245.511H308.228V252.041H280.091ZM339.66 209.037H349.193L361.959 240.198H362.463L375.23 209.037H384.763V252.041H377.288V222.497H376.889L365.004 251.915H359.419L347.534 222.434H347.135V252.041H339.66V209.037ZM413.959 209.037H422.757L433.277 228.061H433.696L444.216 209.037H453.015L437.371 235.999V252.041H429.602V235.999L413.959 209.037Z" fill="white"/>
<path d="M21.18 252.041H12.8648L28.0043 209.037H37.6213L52.7817 252.041H44.4666L32.9808 217.857H32.6448L21.18 252.041ZM21.4529 235.18H44.1306V241.437H21.4529V235.18ZM116.886 223.547H109.033C108.809 222.259 108.396 221.118 107.794 220.124C107.192 219.116 106.443 218.262 105.547 217.563C104.651 216.863 103.629 216.338 102.482 215.988C101.348 215.624 100.123 215.442 98.8069 215.442C96.4692 215.442 94.3974 216.03 92.5916 217.206C90.7858 218.367 89.3719 220.075 88.35 222.329C87.3281 224.569 86.8172 227.306 86.8172 230.539C86.8172 233.829 87.3281 236.601 88.35 238.854C89.3859 241.094 90.7998 242.788 92.5916 243.936C94.3974 245.07 96.4622 245.637 98.7859 245.637C100.074 245.637 101.278 245.469 102.398 245.133C103.531 244.783 104.546 244.272 105.442 243.6C106.352 242.928 107.115 242.102 107.731 241.122C108.361 240.142 108.795 239.022 109.033 237.762L116.886 237.804C116.592 239.848 115.955 241.766 114.975 243.558C114.009 245.35 112.743 246.932 111.175 248.303C109.607 249.661 107.773 250.725 105.673 251.495C103.573 252.251 101.243 252.629 98.6809 252.629C94.9013 252.629 91.5277 251.754 88.56 250.004C85.5923 248.254 83.2545 245.728 81.5467 242.424C79.8389 239.12 78.985 235.159 78.985 230.539C78.985 225.906 79.8459 221.944 81.5677 218.654C83.2895 215.351 85.6343 212.824 88.602 211.074C91.5697 209.324 94.9293 208.449 98.6809 208.449C101.075 208.449 103.3 208.785 105.358 209.457C107.416 210.129 109.25 211.116 110.86 212.418C112.47 213.706 113.792 215.288 114.828 217.164C115.878 219.025 116.564 221.153 116.886 223.547ZM152.675 252.041H144.36L159.499 209.037H169.116L184.277 252.041H175.961L164.476 217.857H164.14L152.675 252.041ZM152.948 235.18H175.625V241.437H152.948V235.18ZM228.165 252.041H213.593V209.037H228.459C232.729 209.037 236.396 209.898 239.462 211.62C242.542 213.328 244.908 215.785 246.559 218.99C248.211 222.196 249.037 226.032 249.037 230.497C249.037 234.977 248.204 238.826 246.538 242.046C244.887 245.266 242.5 247.736 239.378 249.458C236.27 251.18 232.533 252.041 228.165 252.041ZM221.383 245.301H227.787C230.783 245.301 233.282 244.755 235.284 243.663C237.285 242.557 238.79 240.912 239.798 238.728C240.806 236.531 241.31 233.787 241.31 230.497C241.31 227.208 240.806 224.478 239.798 222.308C238.79 220.124 237.299 218.493 235.326 217.416C233.366 216.324 230.93 215.778 228.018 215.778H221.383V245.301ZM280.091 252.041V209.037H308.06V215.568H287.881V227.243H306.611V233.773H287.881V245.511H308.228V252.041H280.091ZM339.66 209.037H349.193L361.959 240.198H362.463L375.23 209.037H384.763V252.041H377.288V222.497H376.889L365.004 251.915H359.419L347.534 222.434H347.135V252.041H339.66V209.037ZM413.959 209.037H422.757L433.277 228.061H433.696L444.216 209.037H453.015L437.371 235.999V252.041H429.602V235.999L413.959 209.037Z" fill="url(#paint0_linear_0_1)"/>
<defs>
<linearGradient id="paint0_linear_0_1" x1="-54.3505" y1="210.041" x2="540.631" y2="252.041" gradientUnits="userSpaceOnUse">
<stop offset="0.0730971" stop-color="#8AFF95"/>
<stop offset="0.881488" stop-color="#31CEFF"/>
</linearGradient>
</defs>
</svg>
